<svg xmlns="http://www.w3.org/2000/svg" viewBox="0 0 97.62681002930228 99.87469681190255" stroke="black" width="512" height="512" stroke-width="0.5" fill="none"><path d="M 0 0 L 0 99.87469681190255 L 97.62681002930228 99.87469681190255 L 97.62681002930228 0 L 0 0 M 0 99.87469681190255 L 0 99.87469681190255 L 1.4615146447494471 97.80840744597938 L 2.876510844889018 95.76786977786105 L 4.246112543810012 93.75295568964799 L 5.571443684903731 91.7635370634407 L 6.8536282115614755 89.79948578133964 L 8.093790067174545 87.8606737254453 L 9.293053195134236 85.94697277785814 L 10.452541538831857 84.05825482067863 L 11.5733790416587 82.19439173600726 L 12.656689647006067 80.35525540594449 L 13.703597298265265 78.5407177125908 L 14.715225938827581 76.75065053804667 L 15.69269951208433 74.98492576441255 L 16.637141961426803 73.24341527378894 L 17.549677230246303 71.5259909482763 L 18.43142926193413 69.8325246699751 L 19.28352199988159 68.16288832098581 L 20.10707938747997 66.51695378340894 L 20.90322536812058 64.89459293934492 L 21.673083885194718 63.29567767089424 L 22.41777888209368 61.720079860157384 L 23.138434302208772 60.167671389234805 L 23.836174088931298 58.63832414022699 L 24.512122185652544 57.13190999523441 L 25.167402535763827 55.64830083635753 L 25.803139082656436 54.18736854569685 L 26.420455769721666 52.74898500535281 L 27.020476540350835 51.333022097425896 L 27.604325337935233 49.939351704016595 L 28.17312610586616 48.56784570722535 L 28.72800278753492 47.21837598915267 L 29.270079326332798 45.89081443189901 L 29.800479665651114 44.585032917564845 L 30.320327748881166 43.30090332825066 L 30.83074751941424 42.038297546056924 L 31.332862920641652 40.79708745308409 L 31.82779789595469 39.57714493143264 L 32.31667638874466 38.37834186320306 L 32.80062234240287 37.20055013049583 L 33.2807597003206 36.0436416154114 L 33.75821240588917 34.90748820005027 L 34.23410440249987 33.79196176651287 L 34.709559633544 32.69693419689972 L 35.18570204241286 31.622277373311277 L 35.66365557249777 30.56786317784801 L 36.14454416718999 29.533563492610398 L 36.629491769880865 28.519250199698902 L 37.11962232396166 27.524795181214017 L 37.61605977282368 26.550070319256193 L 38.11992805985826 25.594947495925936 L 38.63235112845664 24.659298593323683 L 39.15445292201019 23.74299549354994 L 39.68735738391015 22.845910078705145 L 40.232188457547856 21.96791423088979 L 40.7900700863146 21.108879832204366 L 41.36212621360167 20.268678764749325 L 41.949480782800386 19.447182910625145 L 42.55325773730203 18.644264151932305 L 43.17458102049792 17.85979437077124 L 43.81457457577933 17.093645449242487 L 44.47436234653759 16.345689269446495 L 45.15506827616398 15.61579771348373 L 45.857816308049806 14.903842663454654 L 46.58373038558638 14.209696001459776 L 47.333934452164975 13.533229609599502 L 48.10955245117692 12.874315369974397 L 48.911708326013496 12.232825164684868 L 49.74152602006601 11.608630875831423 L 50.60012947672576 11.001604385514511 L 51.48864263938406 10.411617575834626 L 52.40818945143219 9.838542328892231 L 53.359893856261465 9.282250526787777 L 54.34487979726317 8.7426140516218 L 55.36427121782862 8.21950478549472 L 56.41919206134911 7.712794610507018 L 57.51076627121594 7.222355408759199 L 58.64011779082041 6.748059062351672 L 59.808370563553815 6.289777453384971 L 61.01664853280746 5.847382463959562 L 62.26607564197265 5.420745976175894 L 63.557775834440676 5.009739872134446 L 64.89287305360286 4.614236033935711 L 66.27249124285046 4.234106343680139 L 67.69775434557481 3.8692226834682373 L 69.16978630516721 3.519456935400413 L 70.68971106501894 3.1846809815772303 L 72.25865256852133 2.8647667040990825 L 73.87773475906565 2.559585985066491 L 75.5480815800432 2.2690107065799197 L 77.27081697484532 1.9929127507398334 L 79.04706488686327 1.7311639996466965 L 80.87794925948836 1.4836363354010018 L 82.76459403611189 1.2502016401032279 L 84.70812316012517 1.0307317958538391 L 86.7096605749195 0.8250986847532857 L 88.77033022388616 0.6331741889020748 L 90.89125605041647 0.45483019040067063 L 93.07356199790173 0.2899385713495377 L 95.31837200973324 0.13837121384916884 L 97.62681002930228 0"/></svg>